{"title":"Hector Babenco - Lucio Flavio (1977)","uid":5185831,"size":1507574299,"categoryP":"video","categoryS":"movies","magnet":"?xt=urn:btih:31d40ed179187a9fd366c62a7c21f83163e95381&amp;dn=Hector+Babenco+-+Lucio+Flavio+%281977%29&amp;tr=udp%3A%2F%2Ftracker.openbittorrent.com%3A80&amp;tr=udp%3A%2F%2Fopen.demonii.com%3A1337&amp;tr=udp%3A%2F%2Ftracker.coppersurfer.tk%3A6969&amp;tr=udp%3A%2F%2Fexodus.desync.com%3A6969","seeders":1,"leechers":0,"uploader":"mfccorrea","files":3,"time":1259456643,"description":"Story of Brazilian bank-robber LÃƒÂºcio FlÃƒÂ¡vio, who fascinated some people in Rio de Janeiro during the 1970s for his bold robberies and spectacular escapes, and also because he was thought to be intelligent and &quot;politically aware&quot;. Before dying, he disclosed a network of corruption in Brazilian Police, and its involvement with the infamous &quot;Death Squad&quot; of the time, a group of policemen who went about killing criminals without giving them a fair trial.\n\n   General\n      Complete name : Lucio Flavio.avi\n      Format : AVI\n      Format/Info : Audio Video Interleave\n      File size : 1.40 GiB\n      Duration : 2h 0mn\n      Overall bit rate : 1 663 Kbps\n      Writing application : FairUse Wizard - http://fairusewizard.com\n      Writing library : The best and REALLY easy backup tool\n   Video #0\n      ID : 0\n      Format : MPEG-4 Visual\n      Format profile : AdvancedSimple@L5\n      Format settings, BVOP : Yes\n      Format settings, QPel : No\n      Format settings, GMC : No warppoints\n      Format settings, Matrix : Default (MPEG)\n      Muxing mode : Packed bitstream\n      Codec ID : XVID\n      Codec ID/Hint : XviD\n      Duration : 2h 0mn\n      Bit rate : 1 461 Kbps\n      Width : 624 pixels\n      Height : 464 pixels\n      Display aspect ratio : 4:3\n      Frame rate : 23.976 fps\n      Resolution : 24 bits\n      Colorimetry : 4:2:0\n      Scan type : Progressive\n      Bits/(Pixel*Frame) : 0.211\n      Stream size : 1.23 GiB (88%)\n      Writing library : XviD 1.2.0.dev47 (UTC 2006-11-01)\n   Audio #1\n      ID : 1\n      Format : AC-3\n      Format/Info : Audio Coding 3\n      Codec ID : 2000\n      Duration : 2h 0mn\n      Bit rate mode : Constant\n      Bit rate : 192 Kbps\n      Channel(s) : 2 channels\n      Channel positions : L R\n      Sampling rate : 48.0 KHz\n      Stream size : 165 MiB (12%)\n      Alignment : Split accross interleaves\n      Interleave, duration : 42 ms (1.00 video frame)\n      Interleave, preload duration : 500 ms\n\nIMDB: tt0077878\n\nPortuguese audio; English, Spanish and Portuguese subpack (idx/sub)\n\nMy rip of the recently released Brazilian DVD - LÃƒÂºcio FlÃƒÂ¡vio, o Passageiro da Agonia","torrent":{"xt":"urn:btih:31d40ed179187a9fd366c62a7c21f83163e95381","amp;dn":"Hector+Babenco+-+Lucio+Flavio+%281977%29","amp;tr":["udp%3A%2F%2Ftracker.openbittorrent.com%3A80","udp%3A%2F%2Fopen.demonii.com%3A1337","udp%3A%2F%2Ftracker.coppersurfer.tk%3A6969","udp%3A%2F%2Fexodus.desync.com%3A6969"],"infoHash":"31d40ed179187a9fd366c62a7c21f83163e95381","infoHashBuffer":{"type":"Buffer","data":[49,212,14,209,121,24,122,159,211,102,198,42,124,33,248,49,99,233,83,129]},"announce":[],"urlList":[]}}